HIERARCHY
ROOT Hips
{
  OFFSET 328.922 92.5915 810.848
  CHANNELS 6 Xposition Yposition Zposition Zrotation Xrotation Yrotation
  JOINT Spine
  {
    OFFSET 3.17686e-05 8 0
    CHANNELS 6 Xposition Yposition Zposition Zrotation Xrotation Yrotation
    JOINT Spine1
    {
      OFFSET -4.67785e-05 8 2.52887e-05
      CHANNELS 6 Xposition Yposition Zposition Zrotation Xrotation Yrotation
      JOINT Spine2
      {
        OFFSET 5.9004e-05 8 -6.03473e-05
        CHANNELS 6 Xposition Yposition Zposition Zrotation Xrotation Yrotation
        JOINT Spine3
        {
          OFFSET 0 8 0
          CHANNELS 6 Xposition Yposition Zposition Zrotation Xrotation Yrotation
          JOINT Neck
          {
            OFFSET -0.0109235 17 0.0063839
            CHANNELS 6 Xposition Yposition Zposition Zrotation Xrotation Yrotation
            JOINT Head
            {
              OFFSET 0 10.8 0
              CHANNELS 6 Xposition Yposition Zposition Zrotation Xrotation Yrotation
              End Site
              {
                OFFSET 0 20.25 0
              }
            }
          }
          JOINT LeftShoulder
          {
            OFFSET 4.98908 17.0032 0.00629003
            CHANNELS 6 Xposition Yposition Zposition Zrotation Xrotation Yrotation
            JOINT LeftShoulder2
            {
              OFFSET 6.45 0 0
              CHANNELS 6 Xposition Yposition Zposition Zrotation Xrotation Yrotation
              JOINT LeftArm
              {
                OFFSET 6.45 -0.000387941 0.00133179
                CHANNELS 6 Xposition Yposition Zposition Zrotation Xrotation Yrotation
                JOINT LeftForeArm
                {
                  OFFSET -3.5985e-05 -32.4 -2.00003
                  CHANNELS 6 Xposition Yposition Zposition Zrotation Xrotation Yrotation
                  JOINT LeftHand
                  {
                    OFFSET 0 -25.65 2
                    CHANNELS 6 Xposition Yposition Zposition Zrotation Xrotation Yrotation
                    JOINT LeftHandThumb1
                    {
                      OFFSET -0.500035 -1.50006 2.65001
                      CHANNELS 6 Xposition Yposition Zposition Zrotation Xrotation Yrotation
                      JOINT LeftHandThumb2
                      {
                        OFFSET 1.37838e-05 -3.8 3.69998
                        CHANNELS 6 Xposition Yposition Zposition Zrotation Xrotation Yrotation
                        JOINT LeftHandThumb3
                        {
                          OFFSET 0 -3.00003 2.70003
                          CHANNELS 6 Xposition Yposition Zposition Zrotation Xrotation Yrotation
                          End Site
                          {
                            OFFSET 0 -2.29993 1.79996
                          }
                        }
                      }
                    }
                    JOINT LeftHandIndex
                    {
                      OFFSET -2.61561e-05 -1.90002 1.59998
                      CHANNELS 6 Xposition Yposition Zposition Zrotation Xrotation Yrotation
                      JOINT LeftHandIndex1
                      {
                        OFFSET 2.01178e-05 -8.3 1.90002
                        CHANNELS 6 Xposition Yposition Zposition Zrotation Xrotation Yrotation
                        JOINT LeftHandIndex2
                        {
                          OFFSET 0 -4.49999 0
                          CHANNELS 6 Xposition Yposition Zposition Zrotation Xrotation Yrotation
                          JOINT LeftHandIndex3
                          {
                            OFFSET -1.10031e-05 -3.40001 0
                            CHANNELS 6 Xposition Yposition Zposition Zrotation Xrotation Yrotation
                            End Site
                            {
                              OFFSET 0 -2.60001 1.42263e-05
                            }
                          }
                        }
                      }
                    }
                    JOINT LeftHandMiddle
                    {
                      OFFSET -0.250012 -2.20002 0.400004
                      CHANNELS 6 Xposition Yposition Zposition Zrotation Xrotation Yrotation
                      JOINT LeftHandMiddle1
                      {
                        OFFSET 0 -8.30002 0.999997
                        CHANNELS 6 Xposition Yposition Zposition Zrotation Xrotation Yrotation
                        JOINT LeftHandMiddle2
                        {
                          OFFSET 0 -4.64998 0
                          CHANNELS 6 Xposition Yposition Zposition Zrotation Xrotation Yrotation
                          JOINT LeftHandMiddle3
                          {
                            OFFSET -1.07784e-05 -3.3 1.01719e-05
                            CHANNELS 6 Xposition Yposition Zposition Zrotation Xrotation Yrotation
                            End Site
                            {
                              OFFSET 1.28127e-05 -2.69999 0
                            }
                          }
                        }
                      }
                    }
                    JOINT LeftHandRing
                    {
                      OFFSET -0.500009 -2.15 -0.8
                      CHANNELS 6 Xposition Yposition Zposition Zrotation Xrotation Yrotation
                      JOINT LeftHandRing1
                      {
                        OFFSET 0 -7.75002 -0.200021
                        CHANNELS 6 Xposition Yposition Zposition Zrotation Xrotation Yrotation
                        JOINT LeftHandRing2
                        {
                          OFFSET 1.3751e-05 -3.80001 4.74268e-05
                          CHANNELS 6 Xposition Yposition Zposition Zrotation Xrotation Yrotation
                          JOINT LeftHandRing3
                          {
                            OFFSET 1.86743e-05 -3.39998 0
                            CHANNELS 6 Xposition Yposition Zposition Zrotation Xrotation Yrotation
                            End Site
                            {
                              OFFSET 0 -2.60001 0
                            }
                          }
                        }
                      }
                    }
                    JOINT LeftHandPinky
                    {
                      OFFSET -0.750006 -1.75002 -1.84998
                      CHANNELS 6 Xposition Yposition Zposition Zrotation Xrotation Yrotation
                      JOINT LeftHandPinky1
                      {
                        OFFSET -1.28449e-05 -7.15001 -1.00001
                        CHANNELS 6 Xposition Yposition Zposition Zrotation Xrotation Yrotation
                        JOINT LeftHandPinky2
                        {
                          OFFSET 3.17245e-05 -2.99997 1.11036e-05
                          CHANNELS 6 Xposition Yposition Zposition Zrotation Xrotation Yrotation
                          JOINT LeftHandPinky3
                          {
                            OFFSET -3.76798e-05 -2.35005 -2.39053e-05
                            CHANNELS 6 Xposition Yposition Zposition Zrotation Xrotation Yrotation
                            End Site
                            {
                              OFFSET 0 -2.09998 1.96967e-05
                            }
                          }
                        }
                      }
                    }
                  }
                }
              }
            }
          }
          JOINT RightShoulder
          {
            OFFSET -5.01094 16.9968 0.0064521
            CHANNELS 6 Xposition Yposition Zposition Zrotation Xrotation Yrotation
            JOINT RightShoulder2
            {
              OFFSET -6.45 0 0
              CHANNELS 6 Xposition Yposition Zposition Zrotation Xrotation Yrotation
              JOINT RightArm
              {
                OFFSET -6.45 0.00412723 -0.00851411
                CHANNELS 6 Xposition Yposition Zposition Zrotation Xrotation Yrotation
                JOINT RightForeArm
                {
                  OFFSET 2.9307e-05 -32.4 -2.00001
                  CHANNELS 6 Xposition Yposition Zposition Zrotation Xrotation Yrotation
                  JOINT RightHand
                  {
                    OFFSET -3.28504e-05 -25.65 1.99995
                    CHANNELS 6 Xposition Yposition Zposition Zrotation Xrotation Yrotation
                    JOINT RightHandThumb1
                    {
                      OFFSET 0.499994 -1.50001 2.65005
                      CHANNELS 6 Xposition Yposition Zposition Zrotation Xrotation Yrotation
                      JOINT RightHandThumb2
                      {
                        OFFSET 0 -3.80001 3.69998
                        CHANNELS 6 Xposition Yposition Zposition Zrotation Xrotation Yrotation
                        JOINT RightHandThumb3
                        {
                          OFFSET 0 -2.99998 2.70005
                          CHANNELS 6 Xposition Yposition Zposition Zrotation Xrotation Yrotation
                          End Site
                          {
                            OFFSET 0 -2.3 1.79998
                          }
                        }
                      }
                    }
                    JOINT RightHandIndex
                    {
                      OFFSET 0 -1.9 1.60003
                      CHANNELS 6 Xposition Yposition Zposition Zrotation Xrotation Yrotation
                      JOINT RightHandIndex1
                      {
                        OFFSET 1.01046e-05 -8.3 1.90001
                        CHANNELS 6 Xposition Yposition Zposition Zrotation Xrotation Yrotation
                        JOINT RightHandIndex2
                        {
                          OFFSET 1.36288e-05 -4.49999 1.92612e-05
                          CHANNELS 6 Xposition Yposition Zposition Zrotation Xrotation Yrotation
                          JOINT RightHandIndex3
                          {
                            OFFSET -3.65995e-05 -3.40001 -3.98136e-05
                            CHANNELS 6 Xposition Yposition Zposition Zrotation Xrotation Yrotation
                            End Site
                            {
                              OFFSET 0 -2.60001 3.5885e-05
                            }
                          }
                        }
                      }
                    }
                    JOINT RightHandMiddle
                    {
                      OFFSET 0.249999 -2.20001 0.400017
                      CHANNELS 6 Xposition Yposition Zposition Zrotation Xrotation Yrotation
                      JOINT RightHandMiddle1
                      {
                        OFFSET 0 -8.3 1.00001
                        CHANNELS 6 Xposition Yposition Zposition Zrotation Xrotation Yrotation
                        JOINT RightHandMiddle2
                        {
                          OFFSET 2.68663e-05 -4.64997 2.31853e-05
                          CHANNELS 6 Xposition Yposition Zposition Zrotation Xrotation Yrotation
                          JOINT RightHandMiddle3
                          {
                            OFFSET -2.39231e-05 -3.29999 0
                            CHANNELS 6 Xposition Yposition Zposition Zrotation Xrotation Yrotation
                            End Site
                            {
                              OFFSET 0 -2.7 -5.79353e-05
                            }
                          }
                        }
                      }
                    }
                    JOINT RightHandRing
                    {
                      OFFSET 0.499994 -2.15002 -0.799964
                      CHANNELS 6 Xposition Yposition Zposition Zrotation Xrotation Yrotation
                      JOINT RightHandRing1
                      {
                        OFFSET 0 -7.75 -0.20002
                        CHANNELS 6 Xposition Yposition Zposition Zrotation Xrotation Yrotation
                        JOINT RightHandRing2
                        {
                          OFFSET -1.18015e-05 -3.80001 0
                          CHANNELS 6 Xposition Yposition Zposition Zrotation Xrotation Yrotation
                          JOINT RightHandRing3
                          {
                            OFFSET 0 -3.40001 3.29062e-05
                            CHANNELS 6 Xposition Yposition Zposition Zrotation Xrotation Yrotation
                            End Site
                            {
                              OFFSET 4.51677e-05 -2.60004 -1.24422e-05
                            }
                          }
                        }
                      }
                    }
                    JOINT RightHandPinky
                    {
                      OFFSET 0.750005 -1.75001 -1.84995
                      CHANNELS 6 Xposition Yposition Zposition Zrotation Xrotation Yrotation
                      JOINT RightHandPinky1
                      {
                        OFFSET 0 -7.15001 -1.00002
                        CHANNELS 6 Xposition Yposition Zposition Zrotation Xrotation Yrotation
                        JOINT RightHandPinky2
                        {
                          OFFSET -3.37671e-05 -2.99999 1.81726e-05
                          CHANNELS 6 Xposition Yposition Zposition Zrotation Xrotation Yrotation
                          JOINT RightHandPinky3
                          {
                            OFFSET 7.87664e-05 -2.35002 -1.86802e-05
                            CHANNELS 6 Xposition Yposition Zposition Zrotation Xrotation Yrotation
                            End Site
                            {
                              OFFSET -3.74724e-05 -2.09996 0
                            }
                          }
                        }
                      }
                    }
                  }
                }
              }
            }
          }
        }
      }
    }
  }
  JOINT LeftUpLeg
  {
    OFFSET 8 0 2.35171e-05
    CHANNELS 6 Xposition Yposition Zposition Zrotation Xrotation Yrotation
    JOINT LeftLeg
    {
      OFFSET 1.4096e-05 -45 -1.00002
      CHANNELS 6 Xposition Yposition Zposition Zrotation Xrotation Yrotation
      JOINT LeftFoot
      {
        OFFSET 2.23029e-05 -41 -2.00003
        CHANNELS 6 Xposition Yposition Zposition Zrotation Xrotation Yrotation
        JOINT LeftToeBase
        {
          OFFSET 1.72507e-05 -7.5 12.5
          CHANNELS 6 Xposition Yposition Zposition Zrotation Xrotation Yrotation
          JOINT LeftFootToe
          {
            OFFSET 0 0 4
            CHANNELS 6 Xposition Yposition Zposition Zrotation Xrotation Yrotation
            End Site
            {
              OFFSET 0 0 0
            }
          }
        }
      }
    }
  }
  JOINT RightUpLeg
  {
    OFFSET -8 0 -2.35171e-05
    CHANNELS 6 Xposition Yposition Zposition Zrotation Xrotation Yrotation
    JOINT RightLeg
    {
      OFFSET 0 -45 -0.999956
      CHANNELS 6 Xposition Yposition Zposition Zrotation Xrotation Yrotation
      JOINT RightFoot
      {
        OFFSET -1.8736e-05 -41.0001 -1.99999
        CHANNELS 6 Xposition Yposition Zposition Zrotation Xrotation Yrotation
        JOINT RightToeBase
        {
          OFFSET 0 -7.5 12.5
          CHANNELS 6 Xposition Yposition Zposition Zrotation Xrotation Yrotation
          JOINT RightFootToe
          {
            OFFSET 0 0 4
            CHANNELS 6 Xposition Yposition Zposition Zrotation Xrotation Yrotation
            End Site
            {
              OFFSET 0 0 0
            }
          }
        }
      }
    }
  }
}
MOTION
Frames:	3
Frame Time:	0.0111111
329.803 92.9848 799.71 -1.23524 -2.08618 59.9902 0 8 1.13687e-13 4.18445 9.90001 0.237694 1.13687e-13 8 0 2.49124 2.6188 -0.282456 -1.13687e-13 8 0 1.24401 1.31131 -0.126952 5.68434e-14 8 0 1.24338 1.31067 -0.126843 0 17 0 -4.43313 2.62745 12.3862 0 10.8 0 -11.4149 3.50126 29.3519 5 17 0 -27.1888 -5.3886 -10.5467 6.45 0 0 0.0825988 2.33026 -0.86323 6.45 0 0 3.67246 -10.1887 -6.85546 -5.68434e-14 -32.4 -2 -31.4101 -32.9142 -2.11843 0 -25.65 2 5.78597 -5.82287 13.5669 -0.5 -1.5 2.65 -3.39871 -0.669646 -12.3 0 -3.8 3.7 -0.195133 1.4545 -0.0118453 -5.68434e-14 -3 2.7 -0.0965956 11.6932 -0.0547572 5.68434e-14 -1.9 1.6 6.36111e-15 3.97569e-15 2.38542e-15 -5.68434e-14 -8.3 1.9 -1.46557 -10.077 -0.0431355 -5.68434e-14 -4.5 0 -1.04813 -0.12477 -0.0589697 -5.68434e-14 -3.4 0 -0.953681 -0.111816 -0.0571083 -0.25 -2.2 0.4 6.36111e-15 3.97569e-15 2.38542e-15 0 -8.3 1 -1.74013 -4.10607 0.0513725 0 -4.65 0 3.61533e-06 0.0169995 -0.00695667 1.13687e-13 -3.3 -5.68434e-14 3.05683e-06 0.0165561 -0.0068493 -0.5 -2.15 -0.8 6.36111e-15 3.97569e-15 2.38542e-15 5.68434e-14 -7.75 -0.2 -2.35602 7.25512 0.31898 0 -3.8 5.68434e-14 -3.44542e-05 -0.0653256 -0.0255514 5.68434e-14 -3.4 -5.68434e-14 7.54243e-05 -0.0545921 0.131561 -0.75 -1.75 -1.85 6.36111e-15 3.97569e-15 2.38542e-15 0 -7.15 -1 -2.77567 13.1905 0.516625 -5.68434e-14 -3 0 -8.89227e-05 -0.0145694 -0.125741 5.68434e-14 -2.35 1.13687e-13 -2.03316e-05 -0.0148078 -0.0773576 -5 17 -1.13687e-13 -17.8214 -0.233189 -15.8648 -6.45 0 1.13687e-13 -1.85013 -3.62356 5.02345 -6.45 0 -1.13687e-13 -23.6655 -6.36502 16.9717 1.13687e-13 -32.4 -2 35.5388 -66.4433 45.6286 0 -25.65 2 -19.3878 9.50028 52.8054 0.5 -1.5 2.65 14.6072 -25.2524 2.7161 5.68434e-14 -3.8 3.7 0.13411 26.0607 -0.0428854 1.13687e-13 -3 2.7 0.00159378 16.0551 -0.0277748 1.13687e-13 -1.9 1.6 1.59028e-15 -6.36111e-15 -4.37326e-15 0 -8.3 1.9 15.7055 6.26389 -0.993796 1.13687e-13 -4.5 1.13687e-13 31.4398 -0.00425325 0.204424 -1.13687e-13 -3.4 0 22.938 0.04597 0.1148 0.25 -2.2 0.4 1.59028e-15 -6.36111e-15 -4.37326e-15 0 -8.3 1 27.4975 7.06762 -2.61982 0 -4.65 5.68434e-14 78.422 0.108749 0.0877385 -1.13687e-13 -3.3 0 64.0007 0.194779 -0.0883701 0.5 -2.15 -0.8 1.59028e-15 -6.36111e-15 -4.37326e-15 -5.68434e-14 -7.75 -0.2 48.338 3.59457 -4.24035 0 -3.8 0 44.9285 0.047722 0.0672441 1.13687e-13 -3.4 5.68434e-14 31.1774 0.0478959 0.021065 0.75 -1.75 -1.85 1.59028e-15 -6.36111e-15 -4.37326e-15 0 -7.15 -1 54.1688 1.1647 -4.10693 -1.13687e-13 -3 0 38.9588 0.0978597 0.18369 -1.13687e-13 -2.35 0 27.4763 0.103444 0.0757117 8 2.84217e-14 1.13687e-13 5.41664 -15.0814 12.5425 -1.13687e-13 -45 -1 -0.000794937 4.13958 0.699135 1.13687e-13 -41 -2 -0.792812 2.52985 -16.0024 -1.13687e-13 -7.5 12.5 1.19271e-15 1.99562e-08 1.59028e-14 0 0 4 -3.86416 -6.43413 5.82666 -8 0 1.13687e-13 3.43642 -1.64421 -14.2434 -1.13687e-13 -45 -1 -0.0197164 4.35027 0.0801826 0 -41 -2 -1.38648 -3.02861 -3.1732 0 -7.5 12.5 3.10601e-18 1.01544e-08 6.36111e-15 0 0 4 1.46566 0.830458 6.2282 
330.386 92.9735 799.875 -1.1983 -2.0144 60.0864 0 8 0 3.97642 9.91115 0.368201 0 8 0 2.44573 2.53991 -0.195421 0 8 0 1.22178 1.27133 -0.0841213 -1.13687e-13 8 0 1.2212 1.27074 -0.0840464 0 17 0 -4.35153 2.65721 12.3307 1.13687e-13 10.8 -5.68434e-14 -11.3012 3.3371 29.1842 5 17 0 -27.1319 -5.11474 -10.4296 6.45 -2.84217e-14 0 0.113724 2.35969 -0.822416 6.45 2.84217e-14 0 4.81704 -9.41963 -5.44044 5.68434e-14 -32.4 -2 -31.3704 -33.4616 -2.56058 0 -25.65 2 5.50145 -3.82784 10.976 -0.5 -1.5 2.65 -4.07359 -1.0974 -11.4384 0 -3.8 3.7 -0.131745 0.511474 -0.0154203 0 -3 2.7 -0.0648142 10.9526 -0.0791192 5.68434e-14 -1.9 1.6 -1.10348e-32 -7.95139e-16 -7.95139e-16 0 -8.3 1.9 -1.32204 -9.49367 0.00491772 0 -4.5 0 -0.111008 -0.0141044 -0.00602264 0 -3.4 -5.68434e-14 -0.105412 -0.013361 -0.00588973 -0.25 -2.2 0.4 -1.10348e-32 -7.95139e-16 -7.95139e-16 -1.13687e-13 -8.3 1 -1.49698 -4.08401 0.0631953 0 -4.65 0 4.16992e-06 0.0192144 -0.00688733 0 -3.3 -5.68434e-14 3.2388e-06 0.0186845 -0.00678263 -0.5 -2.15 -0.8 -1.10348e-32 -7.95139e-16 -7.95139e-16 5.68434e-14 -7.75 -0.2 -1.90504 6.36404 0.229424 -5.68434e-14 -3.8 0 -3.38035e-05 -0.0655371 -0.0249349 5.68434e-14 -3.4 0 7.47659e-05 -0.0546915 0.131623 -0.75 -1.75 -1.85 -1.10348e-32 -7.95139e-16 -7.95139e-16 5.68434e-14 -7.15 -1 -2.18352 11.7949 0.350779 0 -3 0 -9.05004e-05 -0.0151083 -0.12742 5.68434e-14 -2.35 0 -2.12923e-05 -0.0153091 -0.078376 -5 17 0 -17.5902 -0.0814326 -15.5892 -6.45 0 0 -1.84985 -3.66751 5.08339 -6.45 2.84217e-14 0 -24.2237 -5.65964 16.3445 0 -32.4 -2 35.8176 -65.1771 45.6421 -1.13687e-13 -25.65 2 -18.7005 8.79878 50.7411 0.5 -1.5 2.65 14.4591 -24.6611 2.43552 5.68434e-14 -3.8 3.7 0.113921 26.0115 -0.0428673 0 -3 2.7 0.0251192 16.0889 0.0074797 5.68434e-14 -1.9 1.6 1.98785e-15 0 2.38542e-15 -1.13687e-13 -8.3 1.9 15.5419 6.12912 -0.980111 0 -4.5 0 33.5669 0.0113296 0.205627 0 -3.4 0 24.221 0.0565769 0.111149 0.25 -2.2 0.4 1.98785e-15 0 2.38542e-15 0 -8.3 1 27.6569 7.03589 -2.6628 0 -4.65 0 80.25 0.0739808 0.0486391 -1.13687e-13 -3.3 5.68434e-14 66.7814 0.125805 -0.0813175 0.5 -2.15 -0.8 1.98785e-15 0 2.38542e-15 -5.68434e-14 -7.75 -0.2 48.8705 3.54845 -4.32826 0 -3.8 5.68434e-14 46.133 0.0413547 0.049069 0 -3.4 5.68434e-14 31.9477 0.0393839 0.0128949 0.75 -1.75 -1.85 1.98785e-15 0 2.38542e-15 -1.13687e-13 -7.15 -1 55.1438 1.109 -4.25788 1.13687e-13 -3 0 41.647 0.0670281 0.0892069 0 -2.35 0 29.1353 0.062206 0.0284074 8 1.42109e-14 0 5.15525 -14.8626 12.6219 0 -45 -1 -0.00349193 4.20604 0.733129 0 -41 -2 -0.649119 3.13087 -16.8266 -5.68434e-14 -7.5 12.5 1.59028e-15 2.02833e-08 9.54166e-15 1.13687e-13 0 4 -3.79869 -6.76847 5.77055 -8 0 0 3.26507 -1.2504 -14.011 -5.68434e-14 -45 -1 -0.0199326 4.36469 0.0816548 5.68434e-14 -41 -2 -1.19651 -3.40559 -3.34217 0 -7.5 12.5 -3.10601e-18 9.9154e-09 -6.36111e-15 5.68434e-14 2.77556e-17 4 1.25897 1.51152 6.22961 
330.971 92.9573 800.02 -1.16039 -1.93813 60.2154 1.13687e-13 8 1.13687e-13 3.78132 9.93273 0.469651 0 8 0 2.40978 2.46035 -0.123604 -1.13687e-13 8 0 1.20423 1.23113 -0.0488246 -1.13687e-13 8 1.13687e-13 1.20368 1.23057 -0.0487864 -5.68434e-14 17 0 -4.28656 2.67241 12.2982 0 10.8 5.68434e-14 -11.2172 3.15334 29.0731 5 17 0 -27.0958 -4.8549 -10.2966 6.45 -2.84217e-14 -1.13687e-13 0.150543 2.38831 -0.777161 6.45 2.84217e-14 -1.13687e-13 5.98312 -8.44559 -3.68531 0 -32.4 -2 -31.6826 -34.0379 -2.77942 -5.68434e-14 -25.65 2 5.60692 -1.98939 8.49284 -0.5 -1.5 2.65 -4.38523 -1.97699 -10.2531 -5.68434e-14 -3.8 3.7 -0.0899252 -0.122026 -0.0061768 5.68434e-14 -3 2.7 -0.0476426 10.5534 -0.0483424 5.68434e-14 -1.9 1.6 6.36111e-15 0 -7.95139e-16 0 -8.3 1.9 -1.20381 -8.81406 0.0568797 0 -4.5 1.13687e-13 0.0167678 0.00207926 0.000948012 0 -3.4 5.68434e-14 0.0158286 0.00190655 0.000920436 -0.25 -2.2 0.4 6.36111e-15 0 -7.95139e-16 0 -8.3 1 -1.28456 -3.94622 0.0839737 0 -4.65 5.68434e-14 4.70082e-06 0.0212575 -0.00681865 5.68434e-14 -3.3 -5.68434e-14 3.40817e-06 0.0207434 -0.00671657 -0.5 -2.15 -0.8 6.36111e-15 0 -7.95139e-16 5.68434e-14 -7.75 -0.2 -1.49114 5.55358 0.166361 -5.68434e-14 -3.8 0 -3.29898e-05 -0.0657548 -0.0241771 1.13687e-13 -3.4 -5.68434e-14 7.41092e-05 -0.0547908 0.131684 -0.75 -1.75 -1.85 6.36111e-15 0 -7.95139e-16 5.68434e-14 -7.15 -1 -1.63942 10.4719 0.227921 -5.68434e-14 -3 0 -9.21275e-05 -0.0156557 -0.129095 0 -2.35 -1.13687e-13 -2.22708e-05 -0.0158108 -0.079393 -5 17 0 -17.3574 0.178416 -15.3563 -6.45 0 0 -1.86892 -3.71507 5.12058 -6.45 -2.84217e-14 0 -24.6271 -4.96338 15.7155 0 -32.4 -2 36.0541 -64.1412 45.8405 0 -25.65 2 -18.092 8.06646 48.8855 0.5 -1.5 2.65 14.3765 -23.9879 2.13441 1.13687e-13 -3.8 3.7 0.101222 25.9739 -0.0432295 5.68434e-14 -3 2.7 0.0344301 16.4275 0.0222397 5.68434e-14 -1.9 1.6 -5.56597e-15 3.18055e-15 -1.59028e-15 0 -8.3 1.9 15.1109 5.84919 -0.911908 0 -4.5 0 35.9315 0.0143361 0.167445 -1.13687e-13 -3.4 0 25.6519 0.0505007 0.0882595 0.25 -2.2 0.4 -5.56597e-15 3.18055e-15 -1.59028e-15 0 -8.3 1 27.6794 6.89808 -2.65604 0 -4.65 0 81.5668 0.047544 0.0291728 -1.13687e-13 -3.3 1.13687e-13 68.9838 0.0820745 -0.0618371 0.5 -2.15 -0.8 -5.56597e-15 3.18055e-15 -1.59028e-15 0 -7.75 -0.2 49.3125 3.38945 -4.34404 0 -3.8 -5.68434e-14 47.1917 0.0317657 0.0364406 -1.13687e-13 -3.4 5.68434e-14 32.6329 0.0305619 0.00898328 0.75 -1.75 -1.85 -5.56597e-15 3.18055e-15 -1.59028e-15 0 -7.15 -1 55.9679 0.93065 -4.31197 0 -3 0 43.4347 0.0419721 0.0511947 1.13687e-13 -2.35 0 30.2294 0.0387335 0.0146698 8 4.26326e-14 1.13687e-13 4.87092 -14.6275 12.7395 0 -45 -1 -0.0056496 4.26928 0.759505 0 -41 -2 -0.474512 3.69531 -17.6953 -5.68434e-14 -7.5 12.5 -3.97569e-16 2.06076e-08 9.54166e-15 5.68434e-14 0 4 -3.74795 -7.1062 5.75059 -8 0 1.13687e-13 3.07378 -0.870936 -13.806 5.68434e-14 -45 -1 -0.0195675 4.40961 0.0747639 0 -41 -2 -0.995839 -3.79993 -3.51926 1.13687e-13 -7.5 12.5 1.55301e-18 9.79248e-09 -0 1.13687e-13 2.77556e-17 4 1.06085 2.17955 6.21539 
